<?xml version="1.0" ?><svg enable-background="new 0 0 512 512" id="Layer_2" version="1.1" viewBox="0 0 512 512" xml:space="preserve" xmlns="http://www.w3.org/2000/svg" xmlns:xlink="http://www.w3.org/1999/xlink"><g><g><g><path d="     M18.831,450.754c0-107.117,69.934-197.9,166.634-229.182" fill="none" stroke="#EEEEEE" stroke-linecap="round" stroke-linejoin="round" stroke-miterlimit="10" stroke-width="15"/><path d="     M327.92,219.739c99.759,29.431,172.565,121.721,172.565,231.016" fill="none" stroke="#EEEEEE" stroke-linecap="round" stroke-linejoin="round" stroke-miterlimit="10" stroke-width="15"/></g><polyline fill="none" points="    133.095,445.196 91.956,436.657 80.313,428.895 80.313,404.833 67.893,393.966 63.236,376.889 31.873,372.391   " stroke="#EEEEEE" stroke-linecap="round" stroke-linejoin="round" stroke-miterlimit="10" stroke-width="15"/><polyline fill="none" points="    152.267,235.141 175.787,255.799 202.179,249.977 202.179,262.009 186.654,268.995 190.535,280.638 188.207,300.043     195.193,314.791 210.717,302.372 224.689,287.624 217.703,279.474 237.885,265.114 259.658,283.743 259.658,303.924     276.695,320.225 268.933,331.868 210.717,331.868 199.074,351.274 172.682,376.113 161.815,400.951 150.172,383.875     109.809,397.07 105.928,421.133 128.438,433.553 141.634,433.553 140.858,453.189 153.277,462.273 182.773,450.754     215.374,462.273   " stroke="#EEEEEE" stroke-linecap="round" stroke-linejoin="round" stroke-miterlimit="10" stroke-width="15"/><polyline fill="none" points="    205.439,384.259 216.535,376.497 225.85,363.301   " stroke="#EEEEEE" stroke-linecap="round" stroke-linejoin="round" stroke-miterlimit="10" stroke-width="15"/><polyline fill="none" points="    484.622,364.618 463.701,360.686 459.576,350.888 441.011,348.31 429.666,337.996 401.304,343.153 378.614,361.202     361.081,363.301 355.925,344.7 369.848,343.669 378.614,330.777 378.614,315.822 359.534,308.087 374.489,301.899     385.834,319.947 416.775,312.728 434.564,285.21   " stroke="#EEEEEE" stroke-linecap="round" stroke-linejoin="round" stroke-miterlimit="10" stroke-width="15"/><path d="    M493.346,392.336l-31.708-2.257l-26.299-9.798l-36.613,6.027l-7.219-6.027l-54.662,12.055c0,0,2.063,24.558,2.063,26.105    s-11.861,6.704-11.861,6.704l18.578,38.043" fill="none" stroke="#EEEEEE" stroke-linecap="round" stroke-linejoin="round" stroke-miterlimit="10" stroke-width="15"/></g><g><path d="    M241.582,248.611l-13.571-77.953c-1.439-8.263-2.162-16.635-2.162-25.022v-20.184c0-14.535,11.783-26.318,26.318-26.318h9.094    c14.535,0,26.318,11.783,26.318,26.318v20.184c0,8.387-0.723,16.759-2.162,25.022l-13.571,77.953" fill="none" stroke="#EEEEEE" stroke-linecap="round" stroke-linejoin="round" stroke-miterlimit="10" stroke-width="15"/><circle cx="256.714" cy="74.496" fill="none" r="24.638" stroke="#EEEEEE" stroke-linecap="round" stroke-linejoin="round" stroke-miterlimit="10" stroke-width="15"/></g><g><path d="    M300.138,231.768l-10.833-52.227c-1.148-6.596-1.726-13.279-1.726-19.974v-16.112c0-11.603,9.406-21.008,21.008-21.008h7.26    c11.603,0,21.008,9.406,21.008,21.008v16.112c0,6.695-0.577,13.378-1.726,19.974l-10.833,52.227" fill="none" stroke="#EEEEEE" stroke-linecap="round" stroke-linejoin="round" stroke-miterlimit="10" stroke-width="15"/><circle cx="312.217" cy="102.778" fill="none" r="19.668" stroke="#EEEEEE" stroke-linecap="round" stroke-linejoin="round" stroke-miterlimit="10" stroke-width="15"/></g><g><path d="    M189.132,231.768l-10.833-52.227c-1.148-6.596-1.726-13.279-1.726-19.974v-16.112c0-11.603,9.406-21.008,21.008-21.008h7.26    c11.603,0,21.008,9.406,21.008,21.008v16.112c0,6.695-0.577,13.378-1.726,19.974l-10.833,52.227" fill="none" stroke="#EEEEEE" stroke-linecap="round" stroke-linejoin="round" stroke-miterlimit="10" stroke-width="15"/><circle cx="201.211" cy="102.778" fill="none" r="19.668" stroke="#EEEEEE" stroke-linecap="round" stroke-linejoin="round" stroke-miterlimit="10" stroke-width="15"/></g><g><path d="    M141.986,239.399l-8.167-46.914c-1.033-5.931-1.552-11.94-1.552-17.959v-14.487c0-10.432,8.457-18.889,18.889-18.889h6.527    c10.432,0,18.889,8.457,18.889,18.889v14.487c0,6.02-0.519,12.029-1.552,17.959l-6.116,35.129" fill="none" stroke="#EEEEEE" stroke-linecap="round" stroke-linejoin="round" stroke-miterlimit="10" stroke-width="15"/><circle cx="154.42" cy="123.465" fill="none" r="17.684" stroke="#EEEEEE" stroke-linecap="round" stroke-linejoin="round" stroke-miterlimit="10" stroke-width="15"/></g><g><path d="    M344.093,225.148l-5.686-32.663c-1.033-5.931-1.552-11.94-1.552-17.959v-14.487c0-10.432,8.457-18.889,18.889-18.889h6.527    c10.432,0,18.889,8.457,18.889,18.889v14.487c0,6.02-0.519,12.029-1.552,17.959l-7.847,45.071" fill="none" stroke="#EEEEEE" stroke-linecap="round" stroke-linejoin="round" stroke-miterlimit="10" stroke-width="15"/><circle cx="359.009" cy="123.465" fill="none" r="17.684" stroke="#EEEEEE" stroke-linecap="round" stroke-linejoin="round" stroke-miterlimit="10" stroke-width="15"/></g><g><path d="    M390.64,248.633l-5.109-29.349c-1.033-5.931-1.552-11.94-1.552-17.959v-14.487c0-10.432,8.457-18.889,18.889-18.889h6.527    c10.432,0,18.889,8.457,18.889,18.889v14.487c0,6.02-0.519,12.029-1.552,17.959l-8.711,50.036" fill="none" stroke="#EEEEEE" stroke-linecap="round" stroke-linejoin="round" stroke-miterlimit="10" stroke-width="15"/><circle cx="406.132" cy="150.264" fill="none" r="17.684" stroke="#EEEEEE" stroke-linecap="round" stroke-linejoin="round" stroke-miterlimit="10" stroke-width="15"/></g><g><path d="    M98.633,271.676l-9.121-52.392c-1.033-5.931-1.552-11.94-1.552-17.959v-14.487c0-10.432,8.457-18.889,18.889-18.889h6.527    c10.432,0,18.889,8.457,18.889,18.889v14.487c0,6.02-0.519,12.029-1.552,17.959l-5.358,30.775" fill="none" stroke="#EEEEEE" stroke-linecap="round" stroke-linejoin="round" stroke-miterlimit="10" stroke-width="15"/><circle cx="110.114" cy="150.264" fill="none" r="17.684" stroke="#EEEEEE" stroke-linecap="round" stroke-linejoin="round" stroke-miterlimit="10" stroke-width="15"/></g></g></svg>
