<?xml version="1.0" encoding="utf-8"?>
<svg version="1.1" id="Icons" xmlns="http://www.w3.org/2000/svg" xmlns:xlink="http://www.w3.org/1999/xlink" x="0px" y="0px"
	 viewBox="0 0 24 24" enable-background="new 0 0 24 24" xml:space="preserve">
<linearGradient id="SVGID_1_" gradientUnits="userSpaceOnUse" x1="12" y1="23" x2="12" y2="5" gradientTransform="matrix(1 0 0 -1 0 26)">
	<stop  offset="0" style="stop-color:#FFF650"/>
	<stop  offset="1" style="stop-color:#FFAB17"/>
</linearGradient>
<path fill="url(#SVGID_1_)" d="M4,3h16c1.7,0,3,1.3,3,3v12c0,1.7-1.3,3-3,3H4c-1.7,0-3-1.3-3-3V6C1,4.3,2.3,3,4,3z"/>
<path fill="#ED960A" d="M15.7,12l4-3.6c0.4-0.4,0.4-1,0.1-1.4c-0.4-0.4-1-0.4-1.4-0.1l0,0l-5,4.5c-0.8,0.7-1.9,0.7-2.7,0l-5-4.5
	C5.3,6.6,4.6,6.6,4.3,7s-0.3,1,0.1,1.4l4,3.6l-4,3.6c-0.4,0.4-0.5,1-0.1,1.4c0.4,0.4,1,0.5,1.4,0.1c0,0,0,0,0,0l4.1-3.8
	c1.3,0.9,3,0.9,4.4,0l4.1,3.8c0.4,0.4,1,0.4,1.4,0c0.4-0.4,0.4-1,0-1.4c0,0,0,0,0,0L15.7,12z"/>
</svg>
