<?xml version="1.0" ?><svg style="enable-background:new 0 0 741.034 764.842;" version="1.1" viewBox="0 0 741.034 764.842" xml:space="preserve" xmlns="http://www.w3.org/2000/svg" xmlns:xlink="http://www.w3.org/1999/xlink"><g id="superman_x5F_gym_x5F_hero_x5F_protect_x5F_muscle_x5F_bodybuilder_x5F_strong_x5F_man"><g><path d="M76.329,443.894c0.078-0.695,1.175-1.202,3.244-1.481c1.033-0.136,2.239-0.064,3.682,0.013    c1.438,0.091,2.985,0.431,4.75,0.772c6.882,1.646,15.797,5.708,24.232,12.038c8.501,6.261,14.812,13.605,18.527,19.437    c0.962,1.43,1.669,2.862,2.312,4.076c0.646,1.213,1.082,2.344,1.393,3.29c0.627,1.888,0.723,3.063,0.256,3.381    c-1.151,0.766-4.41-1.9-9.327-6.08c-4.95-4.165-11.638-9.891-19.444-15.639c-7.758-5.819-15.07-10.566-20.528-13.821    c-1.378-0.729-2.618-1.538-3.732-2.125c-1.115-0.574-2.082-1.203-2.885-1.644C77.204,445.231,76.266,444.449,76.329,443.894z" style="fill:#EEEEEE;"/></g><g><path d="M130.113,382.421c-0.68,0.494-1.885,0.159-3.549-0.99c-0.842-0.569-1.663-1.404-2.631-2.404    c-0.965-1.003-1.84-2.267-2.854-3.681c-1.828-2.887-3.707-6.56-5.071-10.852c-1.365-4.286-2.336-9.155-2.713-14.294    c-0.317-5.142,0.015-10.041,0.735-14.401c0.394-2.176,0.864-4.223,1.376-6.111c0.584-1.876,1.133-3.611,1.755-5.156    c0.655-1.537,1.296-2.904,1.908-4.08c0.62-1.174,1.297-2.136,1.869-2.908c1.17-1.539,2.131-2.263,2.779-2.067    c0.761,0.231,1.263,1.396,1.523,3.248c0.142,0.929,0.172,2.019,0.235,3.275c0.071,1.258,0.091,2.662,0.057,4.188    c-0.001,1.531,0.032,3.198-0.031,4.957c0.01,1.768,0.003,3.641-0.008,5.596c0.045,3.917,0.155,8.167,0.423,12.6    c0.329,4.426,0.774,8.603,1.287,12.415c0.516,3.815,1.213,7.201,1.752,10.147c0.359,1.418,0.568,2.8,0.848,3.97    c0.284,1.167,0.429,2.267,0.597,3.146C130.715,380.789,130.657,382.027,130.113,382.421z" style="fill:#EEEEEE;"/></g><g><path d="M431.865,168.369c-4.086,3.178-34.563,24.943-38.649,26.758c-2.645,0.604-7.298,0.878-11.886,0.878    c-5.136,0-10.191-0.343-12.257-0.949c-5.1-1.497-31.164-21.407-36.864-26.687c2.5,9.354,20.845,30.431,33.902,39.333    c1.435,0.978,7.334,1.407,13.622,1.407c7.601,0,15.768-0.627,17.287-1.669C409.937,198.584,426.837,181.322,431.865,168.369z" style="fill:#EEEEEE;"/><path d="M544.474,592.702c3.077,0,6.533,0.586,9.468,0.586c1.317,0,2.529-0.118,3.554-0.46    c4.696-1.565,36.004-28.177,40.7-36.787c4.657-8.539,6.248-47.094,29.176-76.742c0.388-0.347,0.77-0.69,1.17-1.048    c1.247-1.22,2.733-2.354,4.132-3.639c0.741-0.606,1.496-1.222,2.261-1.848c0.379-0.317,0.76-0.635,1.144-0.957    c0.397-0.306,0.797-0.615,1.198-0.926c6.353-5.085,12.542-9.068,17.085-11.803c1.138-0.646,2.182-1.246,3.101-1.798    c0.915-0.464,1.728-0.973,2.396-1.394c1.317-0.723,2.179-1.483,2.182-2.181c0.001-0.558-0.878-1.108-2.702-1.558    c-0.887-0.166-1.958-0.219-3.245-0.248c-1.242,0.048-2.653,0.194-4.195,0.453c-6.079,1.158-13.97,4.507-21.165,10.264    c-4.963,3.854-8.922,8.322-11.733,12.559c-11.165-4.354-29.887-12.128-38.81-18.538c-21.743-15.621-35.222-55.572-35.222-55.572    c-6.261,25.829-32.091,68.095-41.483,90.01c-9.392,21.916-0.783,67.312,0,84.531c0.783,17.219,1.565,32.053,3.131,40.681    c0,0,28.177-20.331,32.873-22.679C540.88,592.917,542.607,592.702,544.474,592.702z M523.709,579.894    c-0.082-1.727-0.162-3.462-0.24-5.194c-0.213-4.682-0.86-10.571-1.61-17.391c-1.783-16.222-5.102-46.417,0.013-58.354    c2.958-6.902,8.1-16.774,13.543-27.225c3.75-7.198,7.663-14.712,11.394-22.24c6.005,8.848,13.262,17.318,21.715,23.391    c7.42,5.331,19.181,10.951,29.807,15.497c-9.098,18.469-13.085,36.823-15.781,49.233c-0.696,3.203-1.538,7.081-2.094,8.983    c-1.506,1.87-5.95,6.716-15.033,14.77c-6.091,5.4-11.148,9.464-14.162,11.73c-0.046-0.004-0.092-0.008-0.136-0.012    c-1.964-0.178-4.189-0.38-6.651-0.38c-5.304,0-9.859,0.988-13.924,3.02C529.171,576.411,526.886,577.805,523.709,579.894z" style="fill:#EEEEEE;"/><path d="M727.842,433.48c-6.828-19.135-17.417-44.842-29.091-58.638    c-15.084-17.827-37.365-33.395-49.007-40.917c-0.143-0.503-0.288-1.011-0.434-1.525c-5.01-17.636-12.581-44.288-39.56-67.3    c-27.235-23.23-64.385-24.433-86.582-25.151c-1.774-0.057-3.442-0.111-4.963-0.173c-7.488-4.973-17.328-10.372-27.621-16.018    c-9.746-5.347-25.173-13.81-31.673-18.79c-0.496-8.525-1.219-22.757-1.796-34.388c4.077-2.937,7.958-7.47,12.373-14.282    c1.537-2.372,6.716-10.617,8.83-17.136c0.669-2.061,2.235-6.891,0.496-23.648c-1.21-11.661-2.916-21.859-10.951-27.767    c-3.638-18.586-10.52-46.99-17.33-59.435c-5.758-10.523-16.788-18.285-32.786-23.069C406.286,1.813,392.609,0.001,378.194,0    c-16.759-0.001-56.755,2.642-68.807,26.939c-7.795,14.496-15.013,45.477-18.63,65.355c-0.869,0.572-1.701,1.203-2.49,1.89    c-7.515,6.538-8.579,16.55-8.61,26.395c-0.019,6.115,0.439,14.656,2.732,20.617c2.335,6.072,8.593,14.883,10.456,17.439    c4.244,5.824,7.79,9.898,11.214,12.721c-1.519,12.596-3.638,27.055-4.793,34.314c-3.51,2.342-12.473,7.393-33.32,15.151    c-13.702,5.099-26.467,9.125-33.08,11.11c-4.331-0.567-8.806-0.715-12.294-0.715c-10.527,0-46.709,1.552-70.311,21.522    c-14.036,11.877-25.174,24.786-33.106,38.37c-5.217,8.936-8.865,17.985-10.821,26.747c-21.36,10.168-38.76,30.194-53.225,46.842    c-1.668,1.92-3.304,3.802-4.906,5.623c-21.405,24.327-32.907,58.789-36.859,72.476c-0.76,2.633-2.772,6.38-4.547,9.685    c-3.293,6.132-6.403,11.924-6.753,18.925c-0.739,14.782,7.861,35.862,13.053,47.112c4.104,8.892,15.133,31.05,28.882,44.715    c20.054,19.933,77.669,68.323,94.922,82.489c7.835,19.464,12.916,23.528,15.186,25.344c2.88,2.304,14.647,10.571,25.5,17.775    c13.362,8.869,21.148,13.394,25.961,15.811l-6.984,36.427c-1.123,5.857,0.323,11.91,4.123,16.507    c3.799,4.597,9.313,7.259,15.313,7.259v-20l9.816-50.658c5.501-1.369,11.908-3.111,18.839-5.192    c0.663-0.276,1.382-0.61,1.877-0.936c0.281-0.165,0.509-0.315,0.716-0.462l0.64-0.453c0.766-0.588,1.47-1.178,2.12-1.77    c1.303-1.186,2.499-2.399,3.649-3.658c2.301-2.515,4.461-5.189,6.527-8.023c2.502-3.447,4.756-6.947,6.699-10.55    c1.931-3.619,3.622-7.247,4.618-11.43c0.245-1.047,0.419-2.174,0.508-3.357c0.012-0.627,0.048-1.256-0.016-1.89l-0.113-0.952    l-0.066-0.458l-0.076-0.354c-0.103-0.47-0.205-0.936-0.306-1.399c-0.112-0.425-0.224-0.847-0.334-1.265    c-0.217-0.848-0.461-1.622-0.691-2.406c-0.943-3.097-1.922-5.887-2.861-8.426c-3.797-10.113-6.998-16.05-8.259-15.676    c-3.131-13.306-4.696-48.527-1.565-62.616c3.131-14.089-1.565-43.831-14.089-68.095c-11.74-14.871-32.874-51.658-40.7-83.749    c0,12.523-21.332,40.231-28.376,47.275c-6.878,6.878-37.446,22.412-57.828,22.412c-0.492,0-0.979-0.009-1.458-0.027    c23.481,26.612,28.177,57.137,36.004,75.139c7.827,18.002,43.048,43.831,45.397,46.962c0.446,0.595,1.823,0.822,3.784,0.822    c6.403,0,19.023-2.427,25.726-2.427c2.052,0,3.551,0.228,4.146,0.822c2.82,2.82,25.093,24.055,28.548,24.236    c-0.405,2.046,0.316,8.115,1.808,16.785c0.444,2.606,0.93,5.457,1.451,8.515c0.115,0.749,0.256,1.526,0.351,2.273    c0.054,0.377,0.108,0.757,0.162,1.14c0.036,0.351,0.071,0.705,0.107,1.061l0.028,0.266c0.005,0.077-0.004,0.114-0.004,0.172    c-0.004,0.107-0.003,0.212,0.001,0.317c0.004,0.214-0.061,0.445-0.078,0.679c-0.111,0.531-0.251,1.127-0.472,1.786    c-0.872,2.651-2.474,5.74-4.309,8.809c-1.841,3.091-3.971,6.25-6.258,9.4c-1.887,2.59-3.826,5.075-5.77,7.35    c-0.969,1.138-1.948,2.215-2.892,3.167c-0.472,0.479-0.929,0.902-1.347,1.272l-0.28,0.228c-0.095,0.081-0.185,0.155-0.229,0.181    c-0.127,0.104-0.112,0.085-0.125,0.121c-5.796,2.18-11.124,4.3-15.81,6.278l-8.971,2.234c-8.61-2.348-47.745-29.742-51.658-32.873    c-3.914-3.131-10.958-21.915-10.958-21.915c-7.044-5.479-76.411-63.479-97.544-84.484c-17.33-17.225-36.841-60.99-36.059-76.644    c0.248-4.968,7.818-14.632,10.54-24.061c5.855-20.281,17.15-47.186,32.659-64.812c16.979-19.297,37.627-45.355,61.441-51.129    c0-18.785,13.205-42.976,38.52-64.396c15.293-12.94,40.862-16.79,57.392-16.79c5.895,0,10.64,0.49,13.36,1.231    c10.345-2.821,81.351-24.73,84.188-38.404c0.942-4.54,6.608-41.992,7.56-58.269c-0.05-0.109-0.1-0.22-0.151-0.33    c-2.181,0.973-4.526,1.615-6.083,1.615c-0.362,0-0.682-0.035-0.947-0.108c-3.87-1.071-15.624-18.204-17.443-22.935    c-1.82-4.731-2.024-22.688,0.338-24.742c0.789-0.686,1.748-0.955,2.767-0.955c1.38,0,2.869,0.493,4.193,1.108    c1.077-12.009,10.533-58.414,18.823-73.336c4.903-10.537,27.674-16.092,51.016-16.091c23.779,0.001,48.151,5.769,54.795,17.911    c6.835,12.492,15.762,52.853,17.44,66.484c1.061-0.688,2.244-1.16,3.419-1.16c0.676,0,1.349,0.156,1.996,0.516    c2.473,1.379,4.585,25.743,3.45,29.242c-1.711,5.277-10.875,20.55-14.952,21.939c-0.327,0.111-0.749,0.163-1.236,0.163    c-1.642,0-4.03-0.586-6.035-1.448c-0.239,0.666-0.477,1.322-0.712,1.963c0.565,11.695,2.297,47.16,2.948,56.271    c0.783,10.958,54.787,34.21,72.007,47.516c17.219,1.565,58.847-1.779,85.458,20.92c22.361,19.073,28.505,40.667,33.292,57.518    c-0.084,3.617-0.219,7.478-0.462,11.505c-0.329,4.426-0.816,8.598-1.379,12.393c-0.565,3.798-1.32,7.152-1.891,10.068    c-0.375,1.403-0.595,2.771-0.878,3.931c-0.285,1.157-0.425,2.253-0.577,3.134c-0.283,1.777-0.154,3.06,0.526,3.554    c0.544,0.394,1.678,0.014,3.308-1.141c0.825-0.573,1.64-1.403,2.611-2.393c0.967-0.993,1.854-2.244,2.884-3.642    c1.861-2.857,3.796-6.498,5.21-10.773c1.177-3.55,2.07-7.515,2.556-11.706c11.11,7.405,29.379,20.656,41.512,34.995    c17.219,20.35,38.326,86.88,37.543,97.837s-14.925,47.745-25.883,58.702c-10.958,10.958-44.593,39.135-57.116,48.527    C625.504,602.22,597,629.313,597,629.313v12.825c-5,5.479-33.692,38.379-51.694,53.251l-0.866-0.15    c-0.326-0.122-0.683-0.243-1.022-0.368c-3.719-1.337-8.196-2.94-13.234-4.751c-2.493-0.906-5.135-1.866-7.772-2.939    c-1.32-0.532-2.637-1.104-3.871-1.7c-0.612-0.298-1.203-0.61-1.687-0.905c-0.503-0.291-0.817-0.591-0.752-0.555    c-0.731-0.82-1.591-1.896-2.384-2.951c-0.808-1.073-1.616-2.2-2.411-3.37c-1.599-2.33-3.157-4.814-4.678-7.371    c-2.103-3.555-4.004-7.116-5.637-10.587c-1.627-3.465-2.976-6.877-3.792-9.993c-0.403-1.548-0.654-3.025-0.697-4.243    c-0.021-0.314,0.012-0.564,0.002-0.852c0.044-0.218,0.077-0.43,0.093-0.655c0.182-0.635,0.315-1.271,0.591-1.997    c0.978-2.837,2.217-5.66,3.308-8.2c2.233-5.109,4.095-9.311,5.197-12.321c1.109-3.011,1.486-4.836,0.926-5.191    c-0.476-0.301-1.935,0.854-4.101,3.258c-2.163,2.411-5.046,6.046-8.266,10.853c-1.6,2.432-3.299,5.079-4.921,8.361    c-0.414,0.788-0.792,1.765-1.176,2.748c-0.181,0.608-0.353,1.234-0.504,1.863c-0.081,0.579-0.192,1.198-0.225,1.768    c-0.174,2.319,0.038,4.484,0.397,6.591c0.747,4.201,2.099,8.212,3.765,12.188c1.676,3.97,3.676,7.901,5.969,11.779    c1.661,2.792,3.395,5.47,5.252,8.018c0.922,1.277,1.88,2.519,2.879,3.733c1.017,1.229,2.003,2.363,3.231,3.591    c1.231,1.17,2.283,1.738,3.171,2.209c0.909,0.468,1.745,0.829,2.561,1.154c1.625,0.642,3.169,1.16,4.67,1.614    c3,0.912,5.835,1.606,8.524,2.212c1.619,0.36,3.531,0.679,5.035,0.969L546,744.842v20c6,0,11.797-2.927,15.579-7.911    c3.781-4.984,4.835-11.45,3.151-17.475l-7.857-27.778c0.386-0.275,0.72-0.565,1.088-0.869    c16.726-13.817,40.363-40.37,50.466-51.709c1.4-1.571,2.582-2.768,3.23-3.479c3.363-3.685,5.344-8.493,5.344-13.482v-4.156    c10-9.241,25.442-23.465,33.028-29.154c13.225-9.919,47.496-38.559,59.322-50.386c8.637-8.637,16.188-24.214,21.028-35.761    c2.286-5.453,9.791-24.139,10.614-35.657C741.89,474.437,732.09,445.386,727.842,433.48z M238.198,548.572    c-1.377,6.198-2.027,14.845-2.145,24.122c-4.265-1.47-8.136-1.47-9.87-1.47c-4.652,0-10.246,0.708-15.655,1.393    c-1.819,0.23-3.861,0.489-5.686,0.69c-0.601-0.505-1.25-1.048-1.953-1.636c-5.252-4.396-13.188-11.039-20.183-17.899    c-10.006-9.812-12.549-14.635-13.09-15.879c-1.704-3.919-3.376-9.014-5.312-14.914c-3.625-11.047-8.07-24.59-15.536-38.618    c3.571-1.265,6.889-2.592,9.828-3.853c4.966-2.132,21.813-9.731,30.103-18.021c3.027-3.028,6.963-7.693,10.933-12.883    c8.977,18.942,19.312,35.802,27.014,45.942C237.37,517.205,239.868,541.055,238.198,548.572z" style="fill:#EEEEEE;"/><path d="M280.975,270.798c0.884,0.268,1.796,0.654,2.771,0.981c0.485,0.167,0.983,0.339,1.494,0.515    c0.496,0.209,1.005,0.423,1.526,0.643c4.181,1.689,8.764,4.084,13.469,7.528c2.361,1.723,4.779,3.722,7.371,5.889    c2.588,2.165,5.366,4.565,8.575,6.903c0.771,0.593,1.636,1.149,2.457,1.71c0.815,0.565,1.682,1.098,2.544,1.615    c1.716,1.008,3.404,1.882,5.059,2.688c3.309,1.604,6.476,2.911,9.465,4.104c5.975,2.36,11.22,4.26,15.386,6.053    c4.176,1.781,7.155,3.456,9.035,4.848c0.977,0.684,1.64,1.319,2.263,1.762c0.55,0.458,1.063,0.719,1.472,0.625    c0.327-0.075,0.567-0.514,0.677-1.392c0.044-0.839-0.081-2.145-0.715-3.613c-0.607-1.48-1.651-3.137-3.078-4.773    c-1.425-1.64-3.217-3.272-5.279-4.855c-4.125-3.163-9.328-6.141-14.961-9.132c-2.808-1.501-5.735-3.013-8.606-4.609    c-1.431-0.799-2.856-1.617-4.214-2.468c-0.666-0.427-1.333-0.854-2.008-1.339c-0.675-0.478-1.355-0.911-2.046-1.446    c-2.759-2.004-5.508-4.231-8.381-6.376c-2.871-2.138-5.819-4.183-8.853-5.904c-6.072-3.472-12.329-5.411-17.526-6.088    c-0.65-0.087-1.284-0.173-1.903-0.256c-0.621-0.031-1.227-0.062-1.816-0.091c-1.175-0.035-2.274-0.111-3.302-0.054    c-2.057,0.148-3.807,0.25-5.223,0.587c-2.833,0.646-4.332,1.392-4.331,2.186c0,0.677,1.493,1.462,4.074,2.267    C277.667,269.695,279.203,270.295,280.975,270.798z" style="fill:#EEEEEE;"/><path d="M408.345,302.555c-1.881,1.512-3.509,3.079-4.786,4.665c-1.28,1.58-2.194,3.189-2.689,4.619    c-0.272,0.69-0.384,1.394-0.48,1.954c-0.042,0.603-0.051,1.097,0.021,1.51c0.17,0.839,0.48,1.264,0.889,1.358    c0.709,0.152,1.554-1.011,3.335-2.304c1.719-1.337,4.448-2.893,8.258-4.51c3.793-1.633,8.566-3.344,14.014-5.411    c2.721-1.04,5.607-2.174,8.62-3.511c3.01-1.343,6.15-2.857,9.361-4.871c3.222-2.058,6.079-4.388,8.542-6.671    c2.469-2.294,4.588-4.505,6.575-6.503c1.974-2.029,3.796-3.747,5.553-5.279c0.442-0.37,0.876-0.734,1.303-1.091    c0.425-0.368,0.868-0.647,1.288-0.975c0.834-0.671,1.688-1.189,2.503-1.722c3.272-2.091,6.371-3.239,8.597-4.27    c2.253-0.865,3.615-1.705,3.616-2.505c0.001-0.67-1.37-1.368-4.042-1.936c-2.646-0.39-6.716-0.56-11.569,0.883    c-1.199,0.369-2.471,0.768-3.705,1.344c-0.62,0.28-1.289,0.536-1.905,0.868c-0.62,0.333-1.251,0.673-1.893,1.018    c-2.505,1.438-5.038,3.19-7.404,5.084c-2.394,1.879-4.733,3.898-7.056,5.799c-2.332,1.905-4.668,3.662-7.136,5.247    c-2.51,1.579-5.27,3.038-7.996,4.452c-2.794,1.444-5.49,2.836-8.06,4.164C416.884,296.711,412.108,299.525,408.345,302.555z" style="fill:#EEEEEE;"/><path d="M361.369,441.394c-5.302,0.072-12.72,1.639-21.335,3.819c-8.632,2.13-18.597,4.704-29.585,5.547    c-10.974,0.905-22.968-0.123-35.196-3.614c-1.52-0.474-3.044-0.884-4.538-1.386c-0.746-0.255-1.49-0.51-2.232-0.763l-1.111-0.377    c-0.177-0.062-0.388-0.126-0.536-0.186l-0.412-0.174c-2.222-0.865-4.217-2.115-6.086-3.745c-3.744-3.256-6.867-8.004-9.732-12.826    c-2.869-4.847-5.521-9.836-8.273-14.445c-2.732-4.622-5.53-8.901-8.398-12.612c-2.854-3.719-5.748-6.874-8.477-9.428    c-2.748-2.544-5.323-4.487-7.528-5.905c-2.223-1.399-4.038-2.321-5.392-2.755c-1.341-0.453-2.162-0.497-2.434-0.122    c-0.232,0.32,0.073,1.072,0.844,2.187c0.785,1.097,1.973,2.636,3.491,4.548c1.502,1.932,3.294,4.281,5.214,7.087    c1.904,2.822,3.931,6.097,5.963,9.853c2.045,3.748,4.072,7.987,6.18,12.673c2.133,4.677,4.284,9.823,7.032,15.344    c1.383,2.759,2.918,5.615,4.799,8.508c1.883,2.885,4.131,5.829,7.003,8.534c2.854,2.701,6.391,5.108,10.323,6.712l0.734,0.311    c0.236,0.096,0.422,0.155,0.637,0.234l1.248,0.446c0.835,0.295,1.672,0.592,2.513,0.89c1.686,0.582,3.427,1.067,5.158,1.6    c13.963,4.017,28.35,4.715,40.796,2.762c12.509-1.878,22.928-5.922,31.195-9.395c8.278-3.547,14.604-6.453,19.114-8.128    c4.475-1.76,7.157-2.518,7.176-3.557C369.554,442.311,366.672,441.232,361.369,441.394z" style="fill:#EEEEEE;"/><path d="M501.655,451.492c2.935-2.689,5.237-5.637,7.163-8.529c1.925-2.901,3.492-5.77,4.902-8.54    c2.792-5.544,4.985-10.709,7.143-15.402c2.139-4.696,4.184-8.948,6.246-12.7c2.049-3.76,4.087-7.036,5.995-9.862    c1.929-2.804,3.715-5.165,5.213-7.106c1.51-1.926,2.687-3.485,3.451-4.615c0.75-1.147,1.028-1.943,0.755-2.318    c-0.232-0.319-1.025-0.231-2.346,0.253c-1.334,0.466-3.138,1.409-5.354,2.822c-2.202,1.429-4.771,3.385-7.53,5.929    c-2.735,2.56-5.641,5.717-8.512,9.442c-2.886,3.716-5.699,8.005-8.461,12.636c-2.774,4.621-5.462,9.615-8.367,14.471    c-2.904,4.823-6.08,9.552-9.873,12.755c-1.894,1.605-3.912,2.825-6.164,3.66c-1.46,0.5-2.931,1.005-4.412,1.512    c-1.512,0.454-3.033,0.911-4.564,1.371c-12.305,3.403-24.38,4.363-35.409,3.33c-11.045-0.932-21.04-3.571-29.707-5.716    c-8.65-2.2-16.11-3.776-21.472-3.818c-5.362-0.132-8.288,1.045-8.25,1.961c0.013,0.843,2.734,1.502,7.278,3.234    c4.577,1.646,10.974,4.573,19.285,8.14c8.308,3.49,18.723,7.581,31.244,9.546c12.455,2.077,26.899,1.471,40.973-2.456    c1.744-0.526,3.483-1.038,5.194-1.585c1.713-0.61,3.322-1.153,5.082-1.821C495.135,456.543,498.74,454.177,501.655,451.492z" style="fill:#EEEEEE;"/></g></g><g id="Layer_1"/></svg>
