<?xml version="1.0" ?><!DOCTYPE svg  PUBLIC '-//W3C//DTD SVG 1.1//EN'  'http://www.w3.org/Graphics/SVG/1.1/DTD/svg11.dtd'><svg enable-background="new 0 0 32 32" height="32px" version="1.1" viewBox="0 0 32 32" width="32px" xml:space="preserve" xmlns="http://www.w3.org/2000/svg" xmlns:xlink="http://www.w3.org/1999/xlink"><g id="Ai_x2C__cyber_x2C__mind_x2C__neural_x2C__Artificial_x2C__artificial_intelligence_x2C__intelligence_1_"><g id="brainstorm"><g id="brainstorm_3_"><g><path d="M5.899,8.793c-0.269,0-0.488-0.168-0.497-0.438C5.402,8.35,5.4,8.251,5.4,8.247      c0-1.823,1.483-3.307,3.306-3.307c0.34,0,0.677,0.052,1.002,0.156c0.263,0.084,0.409,0.365,0.325,0.628      c-0.084,0.263-0.366,0.41-0.628,0.325C9.178,5.977,8.943,5.94,8.706,5.94C7.435,5.94,6.4,6.975,6.4,8.247      c0,0.273-0.218,0.542-0.491,0.546C5.906,8.793,5.902,8.793,5.899,8.793z" fill="#EEEEEE"/><path d="M11.781,30c-0.599,0-1.204-0.148-1.748-0.429l-0.09-0.046c-0.394,0.145-0.809,0.219-1.237,0.219      c-1.5,0-2.823-0.935-3.338-2.316c-1.693-0.136-3.043-1.58-3.043-3.296c0-0.366,0.084-0.806,0.214-1.167      c-0.537-0.45-1.493-1.458-1.493-2.933c0-1.059,0.433-2.005,1.207-2.675c-0.447-0.54-0.695-1.219-0.695-1.937      c0-1.228,0.713-2.295,1.795-2.775c-0.17-0.421-0.258-0.87-0.258-1.325c0-0.817,0.288-1.619,0.811-2.257      c0.174-0.213,0.489-0.245,0.704-0.07c0.213,0.175,0.245,0.49,0.07,0.704c-0.376,0.46-0.584,1.037-0.584,1.624      c0,0.475,0.135,0.943,0.39,1.353c0.086,0.138,0.1,0.309,0.036,0.459c-0.063,0.149-0.195,0.259-0.354,0.294      c-0.947,0.206-1.609,1.025-1.609,1.994c0,0.627,0.283,1.211,0.775,1.601c0.128,0.102,0.199,0.26,0.188,0.423      c-0.01,0.163-0.1,0.311-0.24,0.396c-0.797,0.484-1.236,1.262-1.236,2.191c0,1.462,1.367,2.344,1.38,2.352      c0.232,0.146,0.302,0.452,0.158,0.686c-0.123,0.199-0.259,0.684-0.259,1.063c0,1.236,1.005,2.271,2.241,2.305      c0.016,0,0.031,0.002,0.047,0.004l0.125,0c0,0,0.001,0,0.001,0c0.229,0,0.428,0.155,0.484,0.376      c0.291,1.135,1.312,1.927,2.483,1.927c0.37,0,0.726-0.076,1.056-0.225c0.14-0.064,0.3-0.059,0.435,0.011l0.295,0.152      C10.895,28.89,11.341,29,11.781,29c1.524,0,2.719-1.238,2.719-2.818c0-0.603-0.14-1.451-0.807-2.068      c-0.127-0.118-0.184-0.293-0.151-0.463c0.034-0.17,0.153-0.311,0.315-0.372c0.215-0.081,0.477-0.251,0.586-0.859      c0.048-0.272,0.305-0.454,0.58-0.404c0.272,0.049,0.453,0.309,0.404,0.58c-0.097,0.544-0.308,0.966-0.629,1.262      c0.46,0.629,0.701,1.42,0.701,2.325C15.5,28.323,13.867,30,11.781,30z" fill="#EEEEEE"/><path d="M15.003,12c-0.002,0-0.005,0-0.007,0c-0.276-0.004-0.497-0.231-0.493-0.507      c0.002-0.144,0-0.287-0.001-0.423L14.5,10.808l0.002-0.256c0.009-0.908-0.022-1.624-0.507-1.9      c-0.137-0.078-0.229-0.216-0.249-0.373c-0.02-0.156,0.036-0.313,0.15-0.422c0.401-0.385,0.604-0.944,0.604-1.66      c0-1.293-0.969-2.306-2.207-2.306c-0.485,0-0.949,0.149-1.341,0.432c-0.223,0.162-0.536,0.11-0.698-0.114      c-0.161-0.224-0.11-0.536,0.114-0.698c0.563-0.406,1.229-0.62,1.925-0.62c1.798,0,3.207,1.452,3.207,3.306      c0,0.776-0.185,1.432-0.551,1.959c0.571,0.656,0.561,1.646,0.553,2.406L15.5,10.808l0.002,0.25      c0.001,0.145,0.003,0.295,0.001,0.449C15.499,11.781,15.276,12,15.003,12z" fill="#EEEEEE"/></g></g><g id="brainstorm_5_"><g><g><path d="M26.347,26.459c0.044-0.013,0.088-0.021,0.134-0.022c1.235-0.035,2.24-1.069,2.24-2.305       c0-0.377-0.095-0.754-0.274-1.089c-0.089-0.166-0.077-0.368,0.03-0.522l0.086-0.123c0.042-0.06,0.097-0.11,0.16-0.147       C29.511,21.796,30,20.946,30,20.032c0-0.902-0.462-1.721-1.19-2.166c-0.496-0.235-1.013-0.374-1.417-0.381       c-0.275-0.005-0.495-0.233-0.49-0.51c0.005-0.272,0.229-0.49,0.5-0.49c0.003,0,0.006,0,0.01,0       c0.739,0.014,1.461,0.305,1.871,0.502C30.358,17.639,31,18.777,31,20.032c0,1.161-0.568,2.248-1.503,2.909       c0.147,0.38,0.224,0.785,0.224,1.191c0,1.756-1.414,3.227-3.162,3.303c-0.025,0.004-0.051,0.006-0.075,0.006       c-0.213,0-0.407-0.14-0.474-0.355C25.929,26.822,26.083,26.541,26.347,26.459z" fill="#EEEEEE"/><path d="M25.898,9.788c-0.091,0-0.183-0.024-0.265-0.076c-0.234-0.146-0.306-0.455-0.159-0.689       c0.076-0.123,0.17-0.504,0.17-0.776c0-1.067-1.007-2.307-2.306-2.307c-0.276,0-0.5-0.224-0.5-0.5s0.224-0.5,0.5-0.5       c1.73,0,3.306,1.576,3.306,3.307c0,0.383-0.113,0.971-0.322,1.306C26.228,9.705,26.064,9.788,25.898,9.788z" fill="#EEEEEE"/></g><path d="M20.264,30c-2.075,0-3.764-1.713-3.764-3.818c0-0.875,0.26-1.681,0.743-2.325      c-0.315-0.286-0.529-0.69-0.64-1.209c-0.058-0.27,0.114-0.536,0.384-0.593c0.266-0.061,0.535,0.114,0.593,0.384      c0.126,0.59,0.391,0.759,0.607,0.84c0.162,0.061,0.281,0.202,0.315,0.372c0.033,0.17-0.024,0.345-0.151,0.463      c-0.549,0.508-0.852,1.242-0.852,2.068c0,1.581,1.214,2.818,2.764,2.818c0.44,0,0.887-0.11,1.29-0.317l0.294-0.152      c0.135-0.07,0.295-0.075,0.435-0.011c0.331,0.149,0.686,0.225,1.056,0.225c1.171,0,2.193-0.792,2.483-1.927      c0.057-0.221,0.256-0.376,0.484-0.376h0.001l0.129,0c0.015-0.002,0.03-0.003,0.043-0.004c1.235-0.035,2.241-1.069,2.241-2.305      c0-0.378-0.137-0.864-0.259-1.063c-0.144-0.232-0.073-0.537,0.157-0.685C28.632,22.376,30,21.481,30,20.032      c0-0.929-0.439-1.707-1.236-2.191c-0.14-0.085-0.229-0.233-0.24-0.396c-0.01-0.164,0.06-0.322,0.188-0.423      c0.493-0.39,0.775-0.974,0.775-1.601c0-0.968-0.662-1.788-1.609-1.994c-0.159-0.035-0.292-0.145-0.354-0.294      c-0.063-0.15-0.05-0.321,0.036-0.459c0.255-0.41,0.39-0.878,0.39-1.353c0-1.104-0.735-2.109-1.787-2.443l-0.186-0.064      c-0.207-0.072-0.342-0.271-0.335-0.489c0.001-1.35-1.033-2.385-2.304-2.385c-0.237,0-0.472,0.037-0.699,0.109      c-0.133,0.042-0.279,0.026-0.399-0.042c-0.122-0.069-0.208-0.187-0.239-0.323c-0.237-1.039-1.183-1.792-2.249-1.792      c-1.263,0-2.252,1.013-2.252,2.306c0,0.473,0.113,1.144,0.649,1.66c0.114,0.109,0.169,0.266,0.15,0.422      c-0.02,0.157-0.111,0.295-0.249,0.373c-0.557,0.317-0.553,1.252-0.551,2.004l0,0.153l0,0.158c0,0.166-0.001,0.341,0.004,0.519      c0.008,0.276-0.209,0.506-0.485,0.515c-0.233-0.004-0.507-0.208-0.515-0.485c-0.005-0.19-0.005-0.376-0.004-0.553l0-0.154      l0-0.149c-0.002-0.748-0.006-1.813,0.595-2.501C16.708,7.613,16.5,6.935,16.5,6.197c0-1.854,1.428-3.306,3.252-3.306      c1.359,0,2.581,0.854,3.074,2.089c0.169-0.026,0.341-0.04,0.513-0.04c1.734,0,3.16,1.342,3.295,3.042      c1.367,0.507,2.317,1.858,2.317,3.338c0,0.455-0.088,0.904-0.258,1.325c1.082,0.48,1.795,1.547,1.795,2.775      c0,0.718-0.248,1.396-0.695,1.937C30.567,18.026,31,18.973,31,20.032c0,1.475-0.956,2.483-1.493,2.933      c0.129,0.361,0.214,0.802,0.214,1.167c0,1.716-1.351,3.16-3.043,3.296c-0.515,1.381-1.838,2.316-3.338,2.316      c-0.429,0-0.844-0.074-1.237-0.219l-0.09,0.046C21.467,29.852,20.863,30,20.264,30z" fill="#EEEEEE"/></g></g></g><g><g><g><path d="M21,14h-2.5c-0.276,0-0.5-0.224-0.5-0.5s0.224-0.5,0.5-0.5h2.293l1.854-1.854      C22.74,11.053,22.867,11,23,11h1c0.276,0,0.5,0.224,0.5,0.5S24.276,12,24,12h-0.793l-1.854,1.854C21.26,13.947,21.133,14,21,14z      " fill="#EEEEEE"/><circle cx="21.5" cy="6.5" fill="#EEEEEE" id="XMLID_163_" r="0.5"/><circle cx="25.5" cy="11.5" fill="#EEEEEE" id="XMLID_162_" r="0.5"/></g><g><circle cx="25.5" cy="25.5" fill="#EEEEEE" id="XMLID_160_" r="0.5"/><circle cx="23.5" cy="25.5" fill="#EEEEEE" id="XMLID_159_" r="0.5"/><circle cx="25.5" cy="23.5" fill="#EEEEEE" id="XMLID_158_" r="0.5"/><circle cx="23.5" cy="23.5" fill="#EEEEEE" id="XMLID_149_" r="0.5"/><circle cx="26.5" cy="21.5" fill="#EEEEEE" id="XMLID_148_" r="0.5"/></g></g><path d="M21.5,27c-0.276,0-0.5-0.224-0.5-0.5v-2.293l-1.354-1.354c-0.195-0.195-0.195-0.512,0-0.707    s0.512-0.195,0.707,0l1.5,1.5C21.947,23.74,22,23.867,22,24v2.5C22,26.776,21.776,27,21.5,27z" fill="#EEEEEE"/><path d="M19.5,12c-0.128,0-0.256-0.049-0.354-0.146c-0.195-0.195-0.195-0.512,0-0.707L21,9.293V8    c0-0.276,0.224-0.5,0.5-0.5S22,7.724,22,8v1.5c0,0.133-0.053,0.26-0.146,0.354l-2,2C19.756,11.951,19.628,12,19.5,12z" fill="#EEEEEE"/></g><g><g><g><path d="M13.5,14H11c-0.133,0-0.26-0.053-0.354-0.146L8.793,12H8c-0.276,0-0.5-0.224-0.5-0.5S7.724,11,8,11h1      c0.133,0,0.26,0.053,0.354,0.146L11.207,13H13.5c0.276,0,0.5,0.224,0.5,0.5S13.776,14,13.5,14z" fill="#EEEEEE"/><circle cx="10.5" cy="6.5" fill="#EEEEEE" id="XMLID_152_" r="0.5"/><circle cx="6.5" cy="11.5" fill="#EEEEEE" id="XMLID_151_" r="0.5"/></g><g><circle cx="6.5" cy="25.5" fill="#EEEEEE" id="XMLID_157_" r="0.5"/><circle cx="8.5" cy="25.5" fill="#EEEEEE" id="XMLID_156_" r="0.5"/><circle cx="6.5" cy="23.5" fill="#EEEEEE" id="XMLID_154_" r="0.5"/><circle cx="8.5" cy="23.5" fill="#EEEEEE" id="XMLID_153_" r="0.5"/><circle cx="5.5" cy="21.5" fill="#EEEEEE" id="XMLID_150_" r="0.5"/></g></g><path d="M10.5,27c-0.276,0-0.5-0.224-0.5-0.5V24c0-0.133,0.053-0.26,0.146-0.354l1.5-1.5    c0.195-0.195,0.512-0.195,0.707,0s0.195,0.512,0,0.707L11,24.207V26.5C11,26.776,10.776,27,10.5,27z" fill="#EEEEEE"/><path d="M12.5,12c-0.128,0-0.256-0.049-0.354-0.146l-2-2C10.053,9.76,10,9.633,10,9.5V8c0-0.276,0.224-0.5,0.5-0.5    S11,7.724,11,8v1.293l1.854,1.854c0.195,0.195,0.195,0.512,0,0.707C12.756,11.951,12.628,12,12.5,12z" fill="#EEEEEE"/></g><g><path d="M22.5,16c0.133,0,0.26-0.053,0.354-0.146L23.707,15H26.5c0.276,0,0.5-0.224,0.5-0.5S26.776,14,26.5,14h-3    c-0.133,0-0.26,0.053-0.354,0.146L22.293,15H19.5v1H22.5z" fill="#EEEEEE"/><path d="M20.793,20l1.854,1.854C22.74,21.947,22.867,22,23,22h2c0.276,0,0.5-0.224,0.5-0.5S25.276,21,25,21h-1.793    l-1.854-1.854C21.26,19.053,21.133,19,21,19h-1.5v1H20.793z" fill="#EEEEEE"/><path d="M26.5,18h-2.793l-0.854-0.854C22.76,17.053,22.633,17,22.5,17h-3v1h2.793l0.854,0.854    C23.24,18.947,23.367,19,23.5,19h3c0.276,0,0.5-0.224,0.5-0.5S26.776,18,26.5,18z" fill="#EEEEEE"/><path d="M9.707,15l-0.854-0.854C8.76,14.053,8.633,14,8.5,14h-3C5.224,14,5,14.224,5,14.5S5.224,15,5.5,15h2.793    l0.854,0.854C9.24,15.947,9.367,16,9.5,16h3v-1H9.707z" fill="#EEEEEE"/><path d="M11,19c-0.133,0-0.26,0.053-0.354,0.146L8.793,21H7c-0.276,0-0.5,0.224-0.5,0.5S6.724,22,7,22h2    c0.133,0,0.26-0.053,0.354-0.146L11.207,20H12.5v-1H11z" fill="#EEEEEE"/><path d="M9.5,17c-0.133,0-0.26,0.053-0.354,0.146L8.293,18H5.5C5.224,18,5,18.224,5,18.5S5.224,19,5.5,19h3    c0.133,0,0.26-0.053,0.354-0.146L9.707,18H12.5v-1H9.5z" fill="#EEEEEE"/></g><path d="M19.5,21h-7c-0.276,0-0.5-0.224-0.5-0.5v-5c0-0.276,0.224-0.5,0.5-0.5s0.5,0.224,0.5,0.5V20h6v-6h-6.5   c-0.276,0-0.5-0.224-0.5-0.5s0.224-0.5,0.5-0.5h7c0.276,0,0.5,0.224,0.5,0.5v7C20,20.776,19.776,21,19.5,21z" fill="#EEEEEE"/></g></svg>
