<?xml version="1.0" ?><!DOCTYPE svg  PUBLIC '-//W3C//DTD SVG 1.1//EN'  'http://www.w3.org/Graphics/SVG/1.1/DTD/svg11.dtd'><svg enable-background="new 0 0 32 32" height="32px" version="1.1" viewBox="0 0 32 32" width="32px" xml:space="preserve" xmlns="http://www.w3.org/2000/svg" xmlns:xlink="http://www.w3.org/1999/xlink"><g id="_x3C_Layer_x3E_"/><g id="_x3C_Layer_x3E__1_"><g id="team_x2C__group_x2C__social_media_x2C__social_group_x2C__society_x2C_"><g id="XMLID_341_"><g id="XMLID_343_"><g id="XMLID_355_"><path d="M6.5,31C6.224,31,6,30.776,6,30.5v-0.769c0-1.759,1.352-3.664,3.013-4.247l4.111-1.438l0.271-2.17       c0.034-0.276,0.301-0.475,0.558-0.435c0.274,0.034,0.469,0.284,0.435,0.558l-0.31,2.478c-0.023,0.188-0.151,0.348-0.331,0.41       l-4.404,1.541C8.073,26.873,7,28.387,7,29.731V30.5C7,30.776,6.776,31,6.5,31z" fill="#263238"/></g><g id="XMLID_354_"><path d="M25.5,31c-0.276,0-0.5-0.224-0.5-0.5v-0.769c0-1.345-1.073-2.858-2.343-3.304l-4.404-1.541       c-0.18-0.063-0.308-0.222-0.331-0.409l-0.311-2.48c-0.034-0.274,0.16-0.524,0.434-0.559c0.271-0.037,0.524,0.158,0.559,0.434       l0.272,2.174l4.111,1.438C24.648,26.067,26,27.973,26,29.731V30.5C26,30.776,25.776,31,25.5,31z" fill="#263238"/></g><g id="XMLID_344_"><path d="M16,23.039c-0.276,0-0.5-0.224-0.5-0.5s0.224-0.5,0.5-0.5c1.115,0,3.191,0,3.201-5.471       c0.002-0.96-0.068-1.893-0.934-2.76c-0.511-0.511-1.273-0.77-2.268-0.77s-1.757,0.259-2.268,0.77       c-0.865,0.867-0.936,1.8-0.934,2.76c0.005,2.584,0.476,4.257,1.4,4.974c0.218,0.17,0.258,0.483,0.089,0.702       c-0.171,0.218-0.483,0.256-0.702,0.089c-1.197-0.929-1.781-2.813-1.787-5.763c-0.002-1.082,0.091-2.331,1.227-3.469       c0.705-0.705,1.706-1.063,2.975-1.063s2.27,0.357,2.975,1.063c1.136,1.138,1.229,2.387,1.227,3.469       C20.192,21.044,18.897,23.039,16,23.039z" fill="#263238"/></g></g><g id="XMLID_529_"><path d="M15.997,27.152c-0.122,0-0.244-0.044-0.34-0.133l-2.415-2.237c-0.202-0.188-0.215-0.505-0.027-0.707      c0.189-0.204,0.505-0.213,0.707-0.027l2.075,1.923l2.081-1.923c0.205-0.188,0.521-0.175,0.707,0.027      c0.188,0.203,0.175,0.52-0.028,0.707l-2.42,2.237C16.24,27.108,16.119,27.152,15.997,27.152z" fill="#263238"/></g><g id="XMLID_342_"><path d="M17.813,16.915c-1.422,0-2.902-0.501-3.718-1.234c-0.206-0.186-0.223-0.501-0.038-0.706      s0.504-0.222,0.706-0.038c0.986,0.887,3.348,1.351,4.701,0.623c0.242-0.132,0.547-0.039,0.677,0.204      c0.131,0.243,0.039,0.547-0.204,0.677C19.321,16.771,18.576,16.915,17.813,16.915z" fill="#263238"/></g><g id="XMLID_412_"><g id="XMLID_2151_"><path d="M8.5,23.8c-0.276,0-0.5-0.224-0.5-0.5v-1.811c0-0.156,0.073-0.304,0.198-0.398       C8.708,20.705,9,20.125,9,19.5V18c0-1.103-0.897-2-2-2s-2,0.897-2,2v1.5c0,0.625,0.292,1.205,0.802,1.591       C5.927,21.186,6,21.333,6,21.489V23.3c0,0.276-0.224,0.5-0.5,0.5S5,23.576,5,23.3v-1.575c-0.639-0.571-1-1.369-1-2.225V18       c0-1.654,1.346-3,3-3s3,1.346,3,3v1.5c0,0.855-0.361,1.653-1,2.225V23.3C9,23.576,8.776,23.8,8.5,23.8z" fill="#263238"/></g><g id="XMLID_2150_"><path d="M7.503,22.449c-0.232,0-0.44-0.163-0.489-0.399c-0.055-0.271,0.119-0.535,0.39-0.591       C8.328,21.27,9,20.445,9,19.5C9,19.224,9.224,19,9.5,19s0.5,0.224,0.5,0.5c0,1.419-1.008,2.654-2.396,2.939       C7.57,22.446,7.537,22.449,7.503,22.449z" fill="#263238"/></g><g id="XMLID_2130_"><path d="M1.5,30C1.224,30,1,29.776,1,29.5v-2.53c0-1.401,0.83-2.662,2.114-3.21l2.187-0.949       c0.173-0.072,0.37-0.046,0.517,0.072l1.184,0.972l1.184-0.963c0.145-0.117,0.342-0.145,0.513-0.071l2.188,0.939       c0.254,0.108,0.371,0.402,0.262,0.656s-0.405,0.371-0.656,0.262l-1.909-0.819l-1.266,1.029       c-0.184,0.15-0.447,0.149-0.633-0.001L5.419,23.85L3.51,24.679C2.592,25.07,2,25.969,2,26.97v2.53C2,29.776,1.776,30,1.5,30z" fill="#263238"/></g><g id="XMLID_434_"><path d="M8.939,18.91c-0.996,0-1.948-0.343-2.753-0.991c-0.215-0.174-0.249-0.488-0.076-0.703       c0.175-0.217,0.49-0.248,0.703-0.076c0.641,0.517,1.398,0.811,2.185,0.77C8.95,16.849,8.072,16,7,16c-1.103,0-2,0.897-2,2v0.37       c0,0.276-0.224,0.5-0.5,0.5S4,18.646,4,18.37V18c0-1.654,1.346-3,3-3s3,1.346,3,3v0.35c0,0.246-0.179,0.455-0.421,0.494       C9.348,18.88,9.148,18.91,8.939,18.91z" fill="#263238"/></g></g><g id="XMLID_606_"><g id="XMLID_762_"><path d="M26.5,23.8c-0.276,0-0.5-0.224-0.5-0.5v-1.811c0-0.156,0.073-0.304,0.198-0.398       C26.708,20.705,27,20.125,27,19.5V18c0-1.103-0.897-2-2-2s-2,0.897-2,2v1.5c0,0.625,0.292,1.205,0.802,1.591       C23.927,21.186,24,21.333,24,21.489V23.3c0,0.276-0.224,0.5-0.5,0.5S23,23.576,23,23.3v-1.575c-0.639-0.571-1-1.369-1-2.225V18       c0-1.654,1.346-3,3-3s3,1.346,3,3v1.5c0,0.855-0.361,1.653-1,2.225V23.3C27,23.576,26.776,23.8,26.5,23.8z" fill="#263238"/></g><g id="XMLID_856_"><path d="M25.503,22.449c-0.232,0-0.44-0.163-0.489-0.399c-0.055-0.271,0.119-0.535,0.39-0.591       C26.328,21.27,27,20.445,27,19.5c0-0.276,0.224-0.5,0.5-0.5s0.5,0.224,0.5,0.5c0,1.419-1.008,2.654-2.396,2.939       C25.57,22.446,25.537,22.449,25.503,22.449z" fill="#263238"/></g><g id="XMLID_2011_"><path d="M30.5,30c-0.276,0-0.5-0.224-0.5-0.5v-2.53c0-1.001-0.592-1.899-1.507-2.29l-1.912-0.83l-1.264,1.037       c-0.186,0.15-0.449,0.151-0.633,0.001l-1.266-1.029l-1.909,0.819c-0.253,0.11-0.548-0.008-0.656-0.262       c-0.109-0.254,0.008-0.548,0.262-0.656l2.188-0.939c0.172-0.073,0.369-0.046,0.513,0.071l1.184,0.963l1.184-0.972       c0.146-0.118,0.344-0.145,0.517-0.072l2.189,0.95C30.17,24.308,31,25.568,31,26.97v2.53C31,29.776,30.776,30,30.5,30z" fill="#263238"/></g></g><g id="XMLID_491_"><path d="M24.127,12.995c-0.23,0-0.438-0.16-0.488-0.395c-0.975-4.504-3.856-8.372-7.906-10.611      c-0.241-0.134-0.329-0.438-0.195-0.68s0.437-0.327,0.68-0.195c4.302,2.379,7.363,6.488,8.398,11.275      c0.059,0.27-0.112,0.536-0.383,0.594C24.197,12.991,24.161,12.995,24.127,12.995z" fill="#263238"/></g><g id="XMLID_492_"><path d="M16,8C12.382,8,8.802,7.492,5.358,6.49C5.093,6.413,4.94,6.135,5.018,5.87      c0.078-0.265,0.352-0.42,0.62-0.341c6.659,1.938,13.922,1.951,20.586,0.04c0.267-0.079,0.543,0.077,0.618,0.343      c0.076,0.266-0.077,0.542-0.343,0.618C23.101,7.506,19.568,8,16,8z" fill="#263238"/></g><g id="XMLID_494_"><path d="M16,11c-0.276,0-0.5-0.224-0.5-0.5v-9C15.5,1.224,15.724,1,16,1s0.5,0.224,0.5,0.5v9      C16.5,10.776,16.276,11,16,11z" fill="#263238"/></g><g id="XMLID_370_"><path d="M1.731,19.102c-0.237,0-0.447-0.169-0.491-0.411C1.081,17.807,1,16.901,1,16C1,7.729,7.729,1,16,1      s15,6.729,15,15c0,0.883-0.078,1.771-0.231,2.638c-0.049,0.272-0.314,0.458-0.579,0.405c-0.272-0.048-0.453-0.308-0.405-0.579      C29.928,17.653,30,16.824,30,16c0-7.72-6.28-14-14-14S2,8.28,2,16c0,0.843,0.075,1.688,0.225,2.513      c0.049,0.271-0.132,0.532-0.403,0.581C1.791,19.099,1.762,19.102,1.731,19.102z" fill="#263238"/></g><g><g id="XMLID_373_"><path d="M7.689,14c-0.025,0-0.051-0.002-0.076-0.006c-0.273-0.041-0.461-0.296-0.419-0.569       c0.785-5.17,3.997-9.772,8.591-12.312c0.242-0.133,0.547-0.047,0.68,0.195c0.134,0.242,0.046,0.546-0.195,0.68       C11.945,4.379,8.922,8.71,8.183,13.575C8.146,13.822,7.932,14,7.689,14z" fill="#263238"/></g><g id="XMLID_371_"><path d="M24.311,14c-0.242,0-0.456-0.178-0.493-0.425c-0.738-4.864-3.761-9.195-8.085-11.586       c-0.241-0.134-0.329-0.438-0.195-0.68s0.437-0.327,0.68-0.195c4.594,2.54,7.805,7.143,8.589,12.311       c0.042,0.273-0.146,0.528-0.419,0.569C24.361,13.998,24.336,14,24.311,14z" fill="#263238"/></g></g></g></g></g></svg>