<?xml version="1.0" ?><svg enable-background="new 0 0 512 512" id="Layer_2" version="1.1" viewBox="0 0 512 512" xml:space="preserve" xmlns="http://www.w3.org/2000/svg" xmlns:xlink="http://www.w3.org/1999/xlink"><g><g><path d="    M170.082,336.914L170.082,336.914c-46.53,0-84.25-37.72-84.25-84.25V136.39c0,0,38.075,12.151,84.25,12.151    s84.25-12.151,84.25-12.151v116.274c0,8.724-1.326,17.139-3.788,25.053" fill="none" stroke="#263238" stroke-linecap="round" stroke-linejoin="round" stroke-miterlimit="10" stroke-width="15"/><g><path d="     M117.006,210.386c0-9.451,7.661-17.112,17.112-17.112s17.112,7.661,17.112,17.112" fill="none" stroke="#263238" stroke-linecap="round" stroke-linejoin="round" stroke-miterlimit="10" stroke-width="15"/><path d="     M190.539,210.386c0-9.451,7.661-17.112,17.112-17.112s17.112,7.661,17.112,17.112" fill="none" stroke="#263238" stroke-linecap="round" stroke-linejoin="round" stroke-miterlimit="10" stroke-width="15"/></g><path d="    M222.333,255.702c0,28.858-23.394,52.251-52.251,52.251s-52.251-23.394-52.251-52.251    C130.894,255.702,204.246,255.702,222.333,255.702z" fill="none" stroke="#263238" stroke-linecap="round" stroke-linejoin="round" stroke-miterlimit="10" stroke-width="15"/></g><path d="   M286.832,212.39c0,0,38-1,51-18c0,0-2,43-51,43" fill="none" stroke="#263238" stroke-linecap="round" stroke-linejoin="round" stroke-miterlimit="10" stroke-width="15"/><path d="   M304.832,156.39l40-19c0,0-3,50-41,31C293.832,160.39,304.832,156.39,304.832,156.39z" fill="none" stroke="#263238" stroke-linecap="round" stroke-linejoin="round" stroke-miterlimit="10" stroke-width="15"/><path d="   M265.113,260.68c9.358,3.685,19.552,5.71,30.219,5.71h0c45.563,0,82.5-36.937,82.5-82.5v-64c0-45.563-36.936-82.5-82.5-82.5h0   c-14.746,0-28.576,3.887-40.555,10.665c-8.201-14.71-23.907-24.665-41.945-24.665c-26.51,0-48,21.49-48,48   c0,26.51,21.494,49.125,48.003,49.125c0.004,0,18.997,0.875,36.997-18.125c0,0,35,32,95,3" fill="none" stroke="#263238" stroke-linecap="round" stroke-linejoin="round" stroke-miterlimit="10" stroke-width="15"/><path d="   M377.832,206.804l15.408,11.638c28.585,21.591,40.649,58.732,30.207,93l-37.723,123.795c-9.441,30.982-38.024,52.153-70.413,52.153   h0c-27.35,0-52.445-15.164-65.165-39.377l-45.565-86.738c-9.263-17.633-2.533-39.437,15.057-48.782l0,0   c17.741-9.425,39.763-2.594,49.056,15.217l43.137,82.68l26-92" fill="none" stroke="#263238" stroke-linecap="round" stroke-linejoin="round" stroke-miterlimit="10" stroke-width="15"/><line fill="none" stroke="#263238" stroke-linecap="round" stroke-linejoin="round" stroke-miterlimit="10" stroke-width="15" x1="185.832" x2="182.541" y1="371.39" y2="487.39"/><line fill="none" stroke="#263238" stroke-linecap="round" stroke-linejoin="round" stroke-miterlimit="10" stroke-width="15" x1="423.832" x2="426.832" y1="311.39" y2="487.39"/></g></svg>
