<?xml version="1.0" ?><svg data-name="Layer 1" id="Layer_1" viewBox="0 0 32 32" xmlns="http://www.w3.org/2000/svg" ><defs><style>.cls-1{fill:#EEEEEE;}</style></defs><title/><path class="cls-1" d="M14,13.5h1a0.5,0.5,0,0,0,0-1H14A0.5,0.5,0,0,0,14,13.5Z"/><path class="cls-1" d="M17,13.5h1a0.5,0.5,0,0,0,0-1H17A0.5,0.5,0,0,0,17,13.5Z"/><path class="cls-1" d="M26.14,6.37a0.5,0.5,0,0,0-.17.36L25.11,6.3a0.5,0.5,0,0,0-.67.67l0.14,0.27A3.4,3.4,0,0,0,22.84,8.7a3.26,3.26,0,0,0-.13,2.62,1.06,1.06,0,0,0-.21.66v0.45A1.77,1.77,0,0,0,23,13.69a3.74,3.74,0,0,0,3.47,2.93A3.74,3.74,0,0,0,30,13.69a1.77,1.77,0,0,0,.53-1.26V12a1,1,0,0,0-.26-0.72,4.18,4.18,0,0,0-.29-3.12,4.32,4.32,0,0,0-3.41-1.88A0.5,0.5,0,0,0,26.14,6.37Zm3.36,6.06a0.78,0.78,0,0,1-.29.61,0.5,0.5,0,0,0-.17.28,2.76,2.76,0,0,1-2.54,2.3A2.76,2.76,0,0,1,24,13.32,0.5,0.5,0,0,0,23.79,13a0.78,0.78,0,0,1-.29-0.61V12a0.5,0.5,0,0,0,.36-0.31,3,3,0,0,0,.5-0.72,4,4,0,0,0,4.16-.77,3.87,3.87,0,0,1,.59,1.3h0a0.5,0.5,0,0,0,.39.49v0.44ZM27,7.54V7.34a3,3,0,0,1,2.11,1.29,2.47,2.47,0,0,1,.32,1.05A1.34,1.34,0,0,0,28.5,9a0.5,0.5,0,0,0-.44.19c-1.41,1.76-3.65.7-3.74,0.65a0.5,0.5,0,0,0-.69.28c0,0.09-.06.17-0.1,0.25a2,2,0,0,1,.19-1.21A2.72,2.72,0,0,1,25.38,8a0.5,0.5,0,0,0,.35-0.27v0L26.25,8A0.5,0.5,0,0,0,27,7.54Z"/><path class="cls-1" d="M4,12.5H4.5a0.5,0.5,0,0,0,0-1H4A0.5,0.5,0,0,0,4,12.5Z"/><path class="cls-1" d="M25.5,11.5H25a0.5,0.5,0,0,0,0,1h0.5A0.5,0.5,0,0,0,25.5,11.5Z"/><path class="cls-1" d="M28,11.5H27.5a0.5,0.5,0,0,0,0,1H28A0.5,0.5,0,0,0,28,11.5Z"/><path class="cls-1" d="M5.84,5A15,15,0,0,1,26.16,5a0.5,0.5,0,1,0,.68-0.74,16,16,0,0,0-21.68,0A0.5,0.5,0,0,0,5.84,5Z"/><path class="cls-1" d="M11,12.63v0.58a2.16,2.16,0,0,0,.66,1.56A4.68,4.68,0,0,0,16,18.5a4.68,4.68,0,0,0,4.34-3.73A2.16,2.16,0,0,0,21,13.21V12.63a1.15,1.15,0,0,0-.38-0.91,5.17,5.17,0,0,0-.34-3.9c-0.74-1.27-2.16-2-4.21-2.31a0.5,0.5,0,0,0-.56.5V6.19l-1.28-.64a0.5,0.5,0,0,0-.67.67l0.24,0.47a4.23,4.23,0,0,0-2.25,1.83,4,4,0,0,0-.16,3.2A1.16,1.16,0,0,0,11,12.63ZM12.41,9A3.57,3.57,0,0,1,14.6,7.49,0.5,0.5,0,0,0,15,7.06l0.78,0.39A0.5,0.5,0,0,0,16.5,7V6.59a4.06,4.06,0,0,1,2.91,1.73,3.48,3.48,0,0,1,.43,1.87A1.87,1.87,0,0,0,18.55,9a0.5,0.5,0,0,0-.44.19c-1.84,2.31-4.77.92-4.89,0.86a0.5,0.5,0,0,0-.69.28,3.41,3.41,0,0,1-.31.67A2.82,2.82,0,0,1,12.41,9ZM12,12.63a0.43,0.43,0,0,1,0-.13h0.07l0.07,0h0l0.07,0h0a3.23,3.23,0,0,0,1-1.25,5,5,0,0,0,5.33-1,4.66,4.66,0,0,1,.92,2,0.5,0.5,0,0,0,.45.37h0a0.43,0.43,0,0,1,0,.13v0.58a1.16,1.16,0,0,1-.43.9,0.5,0.5,0,0,0-.17.28A3.7,3.7,0,0,1,16,17.5a3.7,3.7,0,0,1-3.4-3.11,0.5,0.5,0,0,0-.17-0.28,1.16,1.16,0,0,1-.43-0.9V12.63Z"/><path class="cls-1" d="M1.39,16.49a4,4,0,0,0,.84.08A6,6,0,0,0,4,16.27a3.19,3.19,0,0,0,2.92,0,6,6,0,0,0,1.81.29,4,4,0,0,0,.84-0.08,0.5,0.5,0,0,0,.28-0.8,4.38,4.38,0,0,1-.84-2.08,1.77,1.77,0,0,0,.45-1.18V12c0.08-.52.49-3.65-1.07-4.93a2.93,2.93,0,0,0-2.95-.26,3.33,3.33,0,0,0-3,.48C1.76,8,1.59,9.27,2,11l0,0.08A0.94,0.94,0,0,0,1.5,12v0.45a1.77,1.77,0,0,0,.45,1.18,4.38,4.38,0,0,1-.84,2.08A0.5,0.5,0,0,0,1.39,16.49Zm6.6-1A4,4,0,0,0,8.38,15a5.14,5.14,0,0,0,.24.55A4.82,4.82,0,0,1,8,15.5ZM3.21,8.05a2.49,2.49,0,0,1,2.14-.21,0.5,0.5,0,0,0,.33,0,2.11,2.11,0,0,1,2.12,0c0.88,0.73.87,2.69,0.76,3.71a2.4,2.4,0,0,1-1.7-.28,3.59,3.59,0,0,1-1.36-2A0.5,0.5,0,0,0,5,8.87H5a0.5,0.5,0,0,0-.46.3A1.87,1.87,0,0,1,2.9,10.38,2.53,2.53,0,0,1,3.21,8.05ZM2.5,12a0.49,0.49,0,0,0,.37-0.6,2.87,2.87,0,0,0,2-.91,4,4,0,0,0,1.45,1.68A3.2,3.2,0,0,0,8,12.63l0.45,0a0.78,0.78,0,0,1-.27.44,0.5,0.5,0,0,0-.17.28,2.76,2.76,0,0,1-2.54,2.3A2.76,2.76,0,0,1,3,13.32,0.5,0.5,0,0,0,2.79,13a0.78,0.78,0,0,1-.29-0.61V12Zm0.12,3A4,4,0,0,0,3,15.5a4.77,4.77,0,0,1-.64.06A5.14,5.14,0,0,0,2.62,15Z"/><path class="cls-1" d="M26.16,27A15,15,0,0,1,5.84,27a0.5,0.5,0,1,0-.68.74,16,16,0,0,0,21.68,0A0.5,0.5,0,1,0,26.16,27Z"/><path class="cls-1" d="M28.74,17.06a0.5,0.5,0,0,0-.28.09h0a7.39,7.39,0,0,0-.63.51,3.23,3.23,0,0,1-1.28.84,3.23,3.23,0,0,1-1.28-.84,7.38,7.38,0,0,0-.63-0.51h0a0.5,0.5,0,0,0-.28-0.09A3,3,0,0,0,21.57,19a4.39,4.39,0,0,0-2.07-.49,0.5,0.5,0,0,0-.28.09h0a6.13,6.13,0,0,1-6.44,0h0a0.5,0.5,0,0,0-.28-0.09h0a4.39,4.39,0,0,0-2.07.49,3,3,0,0,0-2.8-1.92,0.5,0.5,0,0,0-.28.09h0a7.38,7.38,0,0,0-.63.51,3.23,3.23,0,0,1-1.28.84,3.23,3.23,0,0,1-1.28-.84,7.39,7.39,0,0,0-.63-0.51h0a0.5,0.5,0,0,0-.28-0.09C0.68,17.06,0,19.84,0,21.31v0a0.5,0.5,0,0,0,0,.05v0.09l0,0,0,0,0,0,0,0,0,0,0,0a8.93,8.93,0,0,0,5.27,2,7.5,7.5,0,0,0,2.25-.36A10,10,0,0,0,7.5,25a0.5,0.5,0,0,0,.18.39A14.37,14.37,0,0,0,16,28.5a14.37,14.37,0,0,0,8.32-3.12l0,0,0,0,0,0,0,0,0,0,0,0V25.07a0.5,0.5,0,0,0,0-.05v0a10,10,0,0,0-.2-1.67,7.5,7.5,0,0,0,2.25.36,8.93,8.93,0,0,0,5.27-2l0,0,0,0,0,0,0,0,0,0,0,0V21.38a0.5,0.5,0,0,0,0-.05v0C32,19.84,31.32,17.06,28.74,17.06ZM14.31,20.29l-0.95.47-0.17-.83A7.6,7.6,0,0,0,14.31,20.29ZM8,22.15a6.85,6.85,0,0,1-2.57.54A6.77,6.77,0,0,1,3,22.19V20.94a0.5,0.5,0,0,0-1,0v0.79a7.45,7.45,0,0,1-1-.65c0.06-.73.35-2.89,2.09-3l0.41,0.35A3.39,3.39,0,0,0,5.44,19.5a3.39,3.39,0,0,0,1.93-1.08l0.41-.35a2.1,2.1,0,0,1,1.81,1.5,5.7,5.7,0,0,0-1.47,2.26Zm7.49,5.34a11.74,11.74,0,0,1-4-1V24a0.5,0.5,0,1,0-1,0v2a14.75,14.75,0,0,1-2-1.25,9.4,9.4,0,0,1,.56-2.61,3.62,3.62,0,0,1,3-2.63l0.42,2.08a0.5,0.5,0,0,0,.71.35l2.28-1.14v6.68Zm3.3-7.56-0.17.83-0.95-.47A7.59,7.59,0,0,0,18.8,19.93ZM21.5,26V24a0.5,0.5,0,1,0-1,0v2.49a11.73,11.73,0,0,1-4,1V20.81l2.28,1.14a0.5,0.5,0,0,0,.71-0.35l0.42-2.08a3.62,3.62,0,0,1,3,2.64,9.4,9.4,0,0,1,.56,2.61A14.66,14.66,0,0,1,21.5,26ZM30,21.73V20.94a0.5,0.5,0,1,0-1,0v1.26a6.77,6.77,0,0,1-2.44.49A6.85,6.85,0,0,1,24,22.15l-0.12-.33a5.7,5.7,0,0,0-1.47-2.26,2.1,2.1,0,0,1,1.81-1.5l0.41,0.35a3.39,3.39,0,0,0,1.93,1.08,3.39,3.39,0,0,0,1.93-1.08l0.41-.35c1.74,0.12,2,2.28,2.09,3A7.47,7.47,0,0,1,30,21.73Z"/></svg>
