<?xml version="1.0" ?><svg viewBox="0 0 64 64" xmlns="http://www.w3.org/2000/svg" fill="#EEEEEE"><g id="Outline"><path d="M53,52h-.54a5.929,5.929,0,0,0,1.118-6.183,1,1,0,1,0-1.862.729,4.033,4.033,0,1,1-2.262-2.262,1,1,0,1,0,.729-1.862A5.987,5.987,0,0,0,43.54,52H43a4.982,4.982,0,0,0-4,2.031A4.982,4.982,0,0,0,35,52h-.54a5.929,5.929,0,0,0,1.118-6.183,1,1,0,1,0-1.862.729,4.033,4.033,0,1,1-2.262-2.262,1,1,0,1,0,.729-1.862A5.987,5.987,0,0,0,25.54,52H25a4.982,4.982,0,0,0-4,2.031A4.982,4.982,0,0,0,17,52h-.54a5.929,5.929,0,0,0,1.118-6.183,1,1,0,1,0-1.862.729,4.033,4.033,0,1,1-2.262-2.262,1,1,0,1,0,.729-1.862A5.987,5.987,0,0,0,7.54,52H7a5.006,5.006,0,0,0-5,5v4a1,1,0,0,0,2,0V57a3,3,0,0,1,3-3H17a3,3,0,0,1,3,3v4a1,1,0,0,0,2,0V57a3,3,0,0,1,3-3H35a3,3,0,0,1,3,3v4a1,1,0,0,0,2,0V57a3,3,0,0,1,3-3H53a3,3,0,0,1,3,3v4a1,1,0,0,0,2,0V57A5.006,5.006,0,0,0,53,52Z"/><path d="M54,9a3,3,0,1,0-3,3A3,3,0,0,0,54,9ZM50,9a1,1,0,1,1,1,1A1,1,0,0,1,50,9Z"/><path d="M38,24a3,3,0,1,0-3-3A3,3,0,0,0,38,24Zm0-4a1,1,0,1,1-1,1A1,1,0,0,1,38,20Z"/><path d="M32.879,13.121a1,1,0,0,0,1.414,0L35,12.414l.707.707a1,1,0,1,0,1.414-1.414L36.414,11l.707-.707a1,1,0,1,0-1.414-1.414L35,9.586l-.707-.707a1,1,0,1,0-1.414,1.414l.707.707-.707.707A1,1,0,0,0,32.879,13.121Z"/><path d="M54.121,15.879a1,1,0,0,0-1.414,0L52,16.586l-.707-.707a1,1,0,1,0-1.414,1.414l.707.707-.707.707a1,1,0,1,0,1.414,1.414L52,19.414l.707.707a1,1,0,1,0,1.414-1.414L53.414,18l.707-.707A1,1,0,0,0,54.121,15.879Z"/><path d="M44.219,22.375a1,1,0,0,0,1.562,1.25l.658-.824A4.512,4.512,0,0,0,44.1,15.628a2.512,2.512,0,0,1-1.116-4.2L44,10.414V11a1,1,0,0,0,2,0V8a1,1,0,0,0-1-1H42a1,1,0,0,0,0,2h.586l-1.013,1.013a4.513,4.513,0,0,0,2,7.545,2.512,2.512,0,0,1,1.3,3.994Z"/><path d="M25,4h2V18.429a1,1,0,1,0,2,0V4H57v9a1,1,0,0,0,2,0V4h2a1,1,0,0,0,0-2H25a1,1,0,0,0,0,2Z"/><path d="M61,26H59V17a1,1,0,0,0-2,0v9H32.237l.866-.433A2.733,2.733,0,0,0,31.13,20.5l-5.076,1.449L23.517,20.93a12.931,12.931,0,0,0-4.432-.911A.8.8,0,0,0,19,20h-.54A5.969,5.969,0,0,0,20,16V11a5.006,5.006,0,0,0-5-5H9A1,1,0,0,0,8,7v4a1,1,0,0,0,1,1h9v4a4,4,0,0,1-8,0V15a1,1,0,0,0-2,0v1a5.969,5.969,0,0,0,1.54,4H9a7.008,7.008,0,0,0-7,7V37a1,1,0,0,0,2,0V27a5,5,0,0,1,4.167-4.916l.847,5.081a1,1,0,0,0,1.433.73L13,26.618V37a1,1,0,0,0,2,0V26.618L17.553,27.9a1,1,0,0,0,1.433-.73l.85-5.1a10.945,10.945,0,0,1,2.938.723l2.855,1.142a1,1,0,0,0,.646.032l2.427-.693.646,1.94-2.261,1.13a4.022,4.022,0,0,1-2.573.345L21.2,26.02A1,1,0,0,0,20,27V37a1,1,0,0,0,2,0V28.22l2.122.424a6.023,6.023,0,0,0,3.86-.517L28.237,28H43v3.184a3,3,0,1,0,2,0V28H61a1,1,0,0,0,0-2ZM10,10V8h5a3.006,3.006,0,0,1,2.829,2Zm5.077,11.9L14,23.333,12.923,21.9a5.737,5.737,0,0,0,2.154,0Zm-4.313,3.6L10.181,22H10.5l1.981,2.642Zm6.472,0-1.717-.858L17.5,22h.319Zm13.391-2.782,1.053-.3a.733.733,0,0,1,.528,1.361l-1.053.526ZM44,35a1,1,0,1,1,1-1A1,1,0,0,1,44,35Z"/><path d="M8,37V29a1,1,0,0,0-2,0v8a1,1,0,0,0,2,0Z"/></g></svg>
