<?xml version="1.0" ?><svg data-name="Layer 1" id="Layer_1" viewBox="0 0 64 64" xmlns="http://www.w3.org/2000/svg"><title/><path d="M44,35V10H55a1,1,0,0,0,1-1,7.008,7.008,0,0,0-7-7H21a5.006,5.006,0,0,0-5,5V32H12a4,4,0,0,0,0,8H39A5.006,5.006,0,0,0,44,35ZM49,4a5.008,5.008,0,0,1,4.9,4H44.1A5.008,5.008,0,0,1,49,4ZM36.937,38H12a2,2,0,0,1,0-4H36.937a4.8,4.8,0,0,0,0,4ZM42,35a2.994,2.994,0,0,1-2.649,2.965A2.724,2.724,0,0,1,39.6,33.8,1,1,0,0,0,39,32H18V7a3,3,0,0,1,3-3H44.111A6.973,6.973,0,0,0,42,9Z"/><rect height="2" width="20" x="20" y="11"/><rect height="2" width="20" x="20" y="18"/><rect height="2" width="20" x="20" y="25"/><path d="M3,62H17a1,1,0,0,0,1-1V59a5.006,5.006,0,0,0-5-5H7a5.006,5.006,0,0,0-5,5v2A1,1,0,0,0,3,62Zm1-3a3,3,0,0,1,3-3h6a3,3,0,0,1,3,3v1H4Z"/><path d="M14,50a4,4,0,1,0-4,4A4,4,0,0,0,14,50Zm-4,2a2,2,0,1,1,2-2A2,2,0,0,1,10,52Z"/><path d="M24,59v2a1,1,0,0,0,1,1H39a1,1,0,0,0,1-1V59a5.006,5.006,0,0,0-5-5H29A5.006,5.006,0,0,0,24,59Zm11-3a3,3,0,0,1,3,3v1H26V59a3,3,0,0,1,3-3Z"/><path d="M36,50a4,4,0,1,0-4,4A4,4,0,0,0,36,50Zm-4,2a2,2,0,1,1,2-2A2,2,0,0,1,32,52Z"/><path d="M57,54H51a5.006,5.006,0,0,0-5,5v2a1,1,0,0,0,1,1H61a1,1,0,0,0,1-1V59A5.006,5.006,0,0,0,57,54Zm3,6H48V59a3,3,0,0,1,3-3h6a3,3,0,0,1,3,3Z"/><path d="M58,50a4,4,0,1,0-4,4A4,4,0,0,0,58,50Zm-4,2a2,2,0,1,1,2-2A2,2,0,0,1,54,52Z"/></svg>