<?xml version="1.0" ?><svg data-name="Layer 1" id="Layer_1" viewBox="0 0 24 24" xmlns="http://www.w3.org/2000/svg"><defs><style>.cls-1,.cls-2{fill:none;stroke:#eee;stroke-linecap:round;}.cls-1{stroke-miterlimit:10;}.cls-2{stroke-linejoin:round;}</style></defs><title/><circle class="cls-1" cx="10.088" cy="10.088" r="8.088"/><path class="cls-1" d="M18.1,15.807l3.431,3.432a1.616,1.616,0,0,1,0,2.287h0a1.616,1.616,0,0,1-2.287,0L15.807,18.1"/><path class="cls-2" d="M14.4,14.488l-.289-1.156a1.18,1.18,0,0,0-.952-.878l-.356-.06a4.4,4.4,0,0,1-1.241-.4.8.8,0,0,1-.444-.718v-.129a.8.8,0,0,1,.265-.6,4.453,4.453,0,0,0,1.278-3.2,2.449,2.449,0,0,0-2.574-2.74A2.449,2.449,0,0,0,7.516,7.35a4.453,4.453,0,0,0,1.278,3.2.8.8,0,0,1,.265.6v.181a.721.721,0,0,1-.447.666,8.21,8.21,0,0,1-1.241.4l-.356.06a1.18,1.18,0,0,0-.952.878l-.289,1.156"/></svg>
