<?xml version="1.0" ?><svg viewBox="0 0 512 512" xmlns="http://www.w3.org/2000/svg" style="fill:#EEEEEE"><g id="OUTLINE"><path d="M315.37622,472.06177l-26.135-26.135a12.01228,12.01228,0,0,1-1.49707-15.11914l3.55566-5.335A27.892,27.892,0,0,0,296,409.9502v-.35743a27.98286,27.98286,0,0,0-34.77051-27.14648,11.97977,11.97977,0,0,1-8.26465-.9082l-1.9873-.99317A27.98172,27.98172,0,0,0,211.02441,400.084l-.38964,1.94825a12.03384,12.03384,0,0,1-8.8418,9.27343l-11.7041,2.92579a27.80457,27.80457,0,0,0-17.208,12.75l-17.54932,29.24926a222.489,222.489,0,0,1-30.772-18.80639l23.42578-28.11084a36.26541,36.26541,0,0,0,6.58594-34.90039l-8.85449-26.56153a36.68522,36.68522,0,0,0-8.81543-14.26465l-15.09766-15.09765a20.49018,20.49018,0,0,1,0-28.97852,36.512,36.512,0,0,0,9.2832-35.82812l-6.02929-21.10157a36.721,36.721,0,0,0-31.78321-26.3164l-54.54-4.958q1.87609-7.478,4.26074-14.82617l-15.21094-4.96094A240.06788,240.06788,0,0,0,256,496a237.60706,237.60706,0,0,0,106.42969-24.832L355.32422,456.832A222.5362,222.5362,0,0,1,315.37622,472.06177ZM32,256a225.48869,225.48869,0,0,1,3.37622-38.93311l56.449,5.13135a20.62135,20.62135,0,0,1,17.84765,14.77832l6.0293,21.10254a20.49925,20.49925,0,0,1-5.21289,20.11719,36.53451,36.53451,0,0,0,0,51.60742l15.09765,15.09766a20.5726,20.5726,0,0,1,4.9502,8.00976l8.85449,26.5625a20.36291,20.36291,0,0,1-3.69726,19.59766l-23.73291,28.47925q-7.40772-6.241-14.353-13.15894A222.531,222.531,0,0,1,32,256ZM169.9624,462.9458l16.63916-27.73291a11.90532,11.90532,0,0,1,7.36817-5.459l11.70312-2.92579a28.10436,28.10436,0,0,0,20.65137-21.6582l.38965-1.94726a11.98158,11.98158,0,0,1,17.10937-8.36621l1.98828.99316a27.98757,27.98757,0,0,0,19.29883,2.11816A11.98268,11.98268,0,0,1,280,409.59277v.35743a11.94152,11.94152,0,0,1-2.01367,6.64648l-3.55567,5.33594a28.05936,28.05936,0,0,0,3.4961,35.30859l19.03442,19.03442A226.04414,226.04414,0,0,1,169.9624,462.9458Z"/><path d="M256,152A104,104,0,1,0,360,256,104.11791,104.11791,0,0,0,256,152Zm8,191.63257V320H248v23.63257A88.14455,88.14455,0,0,1,168.36743,264H192V248H168.36743A88.14455,88.14455,0,0,1,248,168.36743V192h16V168.36743A88.14455,88.14455,0,0,1,343.63257,248H320v16h23.63257A88.14455,88.14455,0,0,1,264,343.63257Z"/><path d="M248,252.68652l-45.65723,45.65625,11.31446,11.31446,48-48A8.00235,8.00235,0,0,0,264,256V208H248Z"/><path d="M387.59766,168.69824a23.24666,23.24666,0,0,0,24.47851,2.207l17.3252-8.66211a7.39005,7.39005,0,0,1,6.03906-.251l28.95752,11.583q2.38074,6.02269,4.4187,12.17773l-33.77173,5.62891a21.68381,21.68381,0,0,0-11.82812,6.08691l-16.834,16.834A5.75263,5.75263,0,0,1,402.28613,216a21.79464,21.79464,0,0,0-20.95508,27.78125l8.74707,30.6123a5.79454,5.79454,0,0,1-1.4746,5.68848l-8.50684,8.50684a21.82051,21.82051,0,0,0,0,30.82226l8.50684,8.50684a21.80274,21.80274,0,0,0,21.39843,5.54492l42.0625-12.01855a5.79653,5.79653,0,0,1,4.80567.75l10.82763,7.21875A224.12978,224.12978,0,0,1,456.292,356.40918l14.29688,7.18164A240.04762,240.04762,0,0,0,256,16a239.79867,239.79867,0,0,0-74.48047,11.78418l4.96094,15.21094A222.93258,222.93258,0,0,1,236.928,32.80957l26.88452,32.2627a7.37463,7.37463,0,0,1-1.05859,10.47949,23.37571,23.37571,0,0,0,11.29687,41.39453l13.57227,1.93848a7.34549,7.34549,0,0,1,5.28222,3.50683l8.64161,14.40332A40.86641,40.86641,0,0,0,343.541,156.1875l19.28613-3.21484a7.41616,7.41616,0,0,1,5.63672,1.375Zm78.14648,140.18262a21.76556,21.76556,0,0,0-18.07519-2.82129l-42.0625,12.01855a5.8,5.8,0,0,1-5.68848-1.4746l-8.50684-8.50684a5.79861,5.79861,0,0,1,0-8.19336l8.50684-8.50684a21.80833,21.80833,0,0,0,5.54492-21.39843l-8.74707-30.61328A5.79334,5.79334,0,0,1,402.28613,232a21.65241,21.65241,0,0,0,15.41114-6.38281l16.834-16.834a5.7539,5.7539,0,0,1,3.14453-1.61816l35.61743-5.93652a226.82372,226.82372,0,0,1-.69507,112.22192ZM360.19531,137.19043l-19.28515,3.21484a24.95538,24.95538,0,0,1-25.64258-11.84277L306.625,114.15918a23.28446,23.28446,0,0,0-16.73926-11.11426l-13.57226-1.93847a7.37546,7.37546,0,0,1-3.56543-13.06055,23.37351,23.37351,0,0,0,3.35547-33.2168L257.09058,32.01318A224.52952,224.52952,0,0,1,454.75269,152.48511l-13.37085-5.34839a23.39672,23.39672,0,0,0-19.13477.7959l-17.32617,8.66211a7.33375,7.33375,0,0,1-7.72266-.69629L378.0625,141.5459A23.50609,23.50609,0,0,0,360.19531,137.19043Z"/><path d="M104,160a56,56,0,1,0-56-56A56.0629,56.0629,0,0,0,104,160Zm0-96a40,40,0,1,1-40,40A40.04584,40.04584,0,0,1,104,64Z"/><rect height="16" width="16" x="176" y="96"/><rect height="16" width="16" x="96" y="176"/><rect height="16" width="16" x="16" y="96"/><rect height="22.62742" transform="translate(-19.88225 48) rotate(-45)" width="16.00105" x="39.99947" y="36.68629"/><rect height="22.62742" transform="translate(-66.27417 160) rotate(-45)" width="16.00105" x="151.99947" y="148.68629"/><rect height="16.00105" transform="translate(12.92179 127.19596) rotate(-45)" width="22.62742" x="148.68629" y="39.99947"/><rect height="16.00105" transform="translate(-99.07821 80.80404) rotate(-45)" width="22.62742" x="36.68629" y="151.99947"/><path d="M416,360a8.00067,8.00067,0,0,0-6.99414,11.88477l.38281.6875A40.00075,40.00075,0,0,1,374.42188,432a8.00017,8.00017,0,0,0-6.92481,12.00586A55.77561,55.77561,0,0,0,415.99512,472c1.125,0,2.25781-.0332,3.3916-.09961,28.3916-1.67773,51.4834-25.27051,52.57129-53.71A56.00087,56.00087,0,0,0,416,360Zm39.96973,57.5791a40.01958,40.01958,0,0,1-66.47657,28.40332,56.16151,56.16151,0,0,0,39.207-67.9414,40.09077,40.09077,0,0,1,27.26953,39.53808Z"/><path d="M32.044,380.11523l-13.98633,7.76954a271.4684,271.4684,0,0,0,73.08984,84.48339l9.70508-12.7207A255.56766,255.56766,0,0,1,32.044,380.11523Z"/><path d="M107.63086,484.00684c5.97559,3.89648,12.18457,7.60351,18.4541,11.01855l7.65234-14.05078c-5.90039-3.21387-11.74316-6.70313-17.36816-10.37012Z"/><path d="M480.97461,133.7373l14.05078-7.65234a275.10155,275.10155,0,0,0-74.17285-86.45312l-9.70508,12.7207A258.98881,258.98881,0,0,1,480.97461,133.7373Z"/><path d="M404.36914,27.99316c-5.97559-3.89648-12.18457-7.60351-18.4541-11.01855L378.2627,31.02539c5.90039,3.21387,11.74316,6.70313,17.36816,10.37012Z"/><rect height="16" width="16" x="96" y="16"/><path d="M331.25879,368h-2.35156a19.4463,19.4463,0,0,0-18.05567,26.66992l6.84278,17.10547a19.44668,19.44668,0,0,0,36.50488-1.07324l3.15234-9.46094a19.33723,19.33723,0,0,0-4.69629-19.90039l-7.6455-7.64551A19.31962,19.31962,0,0,0,331.25879,368Zm10.91406,28.18164-3.15234,9.46094a3.44722,3.44722,0,0,1-6.47071.1914L325.707,388.72754A3.44681,3.44681,0,0,1,328.90723,384h2.35156a3.41983,3.41983,0,0,1,2.43652,1.00977l7.64551,7.6455A3.42565,3.42565,0,0,1,342.17285,396.18164Z"/></g></svg>
